<svg xmlns="http://www.w3.org/2000/svg" width="256" height="256" viewBox="0 0 100 100"><rect width="100" height="100" rx="0" fill="#665fd1"></rect><path d="M15.26 60.23L12.02 60.23L12.02 31.14L15.37 31.14L15.37 41.88L15.65 41.88Q16.02 41.31 16.68 40.42Q17.34 39.53 18.59 38.83Q19.83 38.13 21.96 38.13L21.96 38.13Q24.72 38.13 26.82 39.50Q28.92 40.88 30.10 43.41Q31.28 45.94 31.28 49.38L31.28 49.38Q31.28 52.84 30.10 55.38Q28.92 57.91 26.83 59.30Q24.74 60.68 22.02 60.68L22.02 60.68Q19.91 60.68 18.65 59.98Q17.39 59.28 16.70 58.37Q16.02 57.47 15.65 56.88L15.65 56.88L15.26 56.88L15.26 60.23ZM15.31 49.32L15.31 49.32Q15.31 51.79 16.04 53.67Q16.76 55.55 18.15 56.61Q19.55 57.67 21.56 57.67L21.56 57.67Q23.66 57.67 25.08 56.56Q26.49 55.44 27.21 53.54Q27.93 51.65 27.93 49.32L27.93 49.32Q27.93 47.02 27.22 45.16Q26.52 43.31 25.11 42.22Q23.69 41.14 21.56 41.14L21.56 41.14Q19.52 41.14 18.12 42.17Q16.73 43.20 16.02 45.04Q15.31 46.88 15.31 49.32ZM36.39 31.14L39.74 31.14L39.74 60.23L36.39 60.23L36.39 31.14ZM54.74 60.68L54.74 60.68Q51.79 60.68 49.57 59.28Q47.34 57.87 46.10 55.34Q44.86 52.81 44.86 49.43L44.86 49.43Q44.86 46.02 46.10 43.48Q47.34 40.94 49.57 39.53Q51.79 38.13 54.74 38.13L54.74 38.13Q57.70 38.13 59.92 39.53Q62.14 40.94 63.39 43.48Q64.63 46.02 64.63 49.43L64.63 49.43Q64.63 52.81 63.39 55.34Q62.14 57.87 59.92 59.28Q57.70 60.68 54.74 60.68ZM54.74 57.67L54.74 57.67Q56.99 57.67 58.44 56.52Q59.89 55.37 60.58 53.49Q61.28 51.62 61.28 49.43L61.28 49.43Q61.28 47.24 60.58 45.36Q59.89 43.47 58.44 42.30Q56.99 41.14 54.74 41.14L54.74 41.14Q52.50 41.14 51.05 42.30Q49.60 43.47 48.91 45.36Q48.21 47.24 48.21 49.43L48.21 49.43Q48.21 51.62 48.91 53.49Q49.60 55.37 51.05 56.52Q52.50 57.67 54.74 57.67ZM78.55 68.86L78.55 68.86Q76.12 68.86 74.38 68.25Q72.63 67.63 71.47 66.63Q70.31 65.63 69.63 64.49L69.63 64.49L72.30 62.61Q72.76 63.21 73.45 63.98Q74.15 64.76 75.36 65.33Q76.58 65.91 78.55 65.91L78.55 65.91Q81.19 65.91 82.91 64.63Q84.63 63.35 84.63 60.63L84.63 60.63L84.63 56.19L84.35 56.19Q83.98 56.79 83.30 57.66Q82.63 58.54 81.37 59.21Q80.11 59.89 77.98 59.89L77.98 59.89Q75.34 59.89 73.25 58.64Q71.15 57.39 69.94 55.00Q68.72 52.61 68.72 49.20L68.72 49.20Q68.72 45.85 69.90 43.36Q71.08 40.87 73.18 39.50Q75.28 38.13 78.04 38.13L78.04 38.13Q80.17 38.13 81.43 38.83Q82.68 39.53 83.36 40.42Q84.03 41.31 84.40 41.88L84.40 41.88L84.74 41.88L84.74 38.41L87.98 38.41L87.98 60.85Q87.98 63.66 86.71 65.43Q85.44 67.20 83.30 68.03Q81.16 68.86 78.55 68.86ZM78.44 56.88L78.44 56.88Q80.45 56.88 81.85 55.95Q83.24 55.03 83.96 53.30Q84.69 51.56 84.69 49.15L84.69 49.15Q84.69 46.79 83.98 44.99Q83.27 43.18 81.88 42.16Q80.48 41.14 78.44 41.14L78.44 41.14Q76.31 41.14 74.89 42.22Q73.48 43.30 72.78 45.11Q72.07 46.93 72.07 49.15L72.07 49.15Q72.07 51.42 72.79 53.16Q73.51 54.90 74.92 55.89Q76.34 56.88 78.44 56.88Z" fill="#fff"></path></svg>